<svg xmlns="http://www.w3.org/2000/svg" xmlns:xlink="http://www.w3.org/1999/xlink" viewBox="0 0 1920 720.88"><defs><style>.cls-1{opacity:0.39;}.cls-2{fill:url(#linear-gradient);}.cls-3{fill:#ed4296;}</style><linearGradient id="linear-gradient" y1="360.44" x2="1926.59" y2="360.44" gradientUnits="userSpaceOnUse"><stop offset="0" stop-color="#614a9d" stop-opacity="0"/><stop offset="1" stop-color="#ed4296"/></linearGradient></defs><g id="Layer_2" data-name="Layer 2"><g id="Layer_1-2" data-name="Layer 1"><g class="cls-1"><path class="cls-2" d="M1920,121.92a333.38,333.38,0,0,0-26.77-20.61c-9.22-6.46-18.7-12.54-28.36-18.32a527.64,527.64,0,0,0-188.74-68.55,514.37,514.37,0,0,0-133.82-3.26,568,568,0,0,0-66.08,11.07l-8.16,1.95c-2.71.68-5.44,1.24-8.13,2l-16.16,4.44-16,5c-1.34.42-2.68.82-4,1.26l-4,1.38L1411.89,41c-2.63.93-5.29,1.81-7.91,2.78l-7.82,3c-5.2,2-10.47,3.91-15.59,6.17l-15.44,6.53-15.23,7c-5.11,2.27-10.07,4.88-15.09,7.34s-10,4.9-14.94,7.61l-14.79,7.93c-4.88,2.73-9.7,5.57-14.55,8.35l-7.27,4.19-7.15,4.41-14.28,8.82-14,9.23-7,4.62-6.89,4.81-13.75,9.64c-4.55,3.27-9,6.66-13.51,10l-6.74,5c-1.12.84-2.26,1.66-3.36,2.52l-3.3,2.6L1180,174c-2.19,1.75-4.43,3.43-6.57,5.23l-6.46,5.38-12.94,10.73c-4.29,3.61-8.46,7.35-12.7,11s-8.47,7.34-12.63,11.09l-12.39,11.38-6.19,5.69-3.09,2.85-3,2.92L1091.93,252l-6,5.84c-2,1.93-4,4-6,5.95l-11.83,12-5.93,6c-2,2-3.86,4.06-5.8,6.09l-23.19,24.49-23.4,24.62-2.93,3.07-3,3-6,6-12,12-6,6c-2,2-4,4-6.09,5.92L961.3,384.48c-8.27,7.73-16.41,15.61-25,23l-12.7,11.29-6.35,5.65-3.17,2.82L910.86,430l-26,21.85c-35.17,28.58-71.61,55.62-109.45,80.57A1235.49,1235.49,0,0,1,658,601l-15.16,7.68-3.79,1.92-3.85,1.82L627.55,616l-15.37,7.25c-2.55,1.24-5.17,2.34-7.76,3.49l-7.78,3.4L581.05,637l-15.75,6.37-7.88,3.18c-2.63,1-5.24,2.17-7.91,3.12l-15.92,5.93c-10.57,4.08-21.36,7.57-32.06,11.28-5.34,1.89-10.76,3.54-16.16,5.23l-16.22,5.08c-5.43,1.61-10.89,3.12-16.33,4.68l-8.17,2.33c-1.36.38-2.72.79-4.08,1.15l-4.12,1.05c-11,2.81-21.91,5.73-33,8.14-5.52,1.24-11,2.56-16.56,3.73l-16.65,3.38c-2.77.54-5.54,1.16-8.33,1.65l-8.35,1.48c-5.58,1-11.14,2-16.73,2.93-11.19,1.69-22.35,3.54-33.59,4.89-11.21,1.56-22.47,2.68-33.72,3.87-45.05,4.12-90.36,5.64-135.51,3.44-22.57-1.08-45.1-2.93-67.5-5.8-11.2-1.48-22.36-3.18-33.47-5.17S10.9,704.63,0,701.72c22,4.94,44.38,7.93,66.77,10.24s44.9,3.55,67.39,4,45,.26,67.46-.88,44.87-3,67.2-5.52,44.56-5.9,66.67-9.84c5.53-1,11-2.13,16.54-3.18L360.3,695c2.75-.53,5.48-1.19,8.23-1.77L385,689.56c5.47-1.26,10.9-2.66,16.36-4,10.93-2.55,21.72-5.67,32.56-8.56l4.07-1.1c1.35-.37,2.69-.79,4-1.19l8.07-2.4c5.37-1.61,10.76-3.18,16.12-4.83l16-5.23c5.33-1.74,10.68-3.44,15.94-5.38,10.56-3.8,21.19-7.38,31.61-11.55l15.7-6.06c2.63-1,5.19-2.12,7.79-3.18l7.76-3.25,15.52-6.5,15.34-6.9,7.68-3.45c2.55-1.15,5.13-2.26,7.64-3.51l15.16-7.29,7.58-3.64,3.79-1.83,3.74-1.93,14.95-7.71a1223.69,1223.69,0,0,0,115.65-68.69Q824,484,876.07,441.17l25.74-21.69,3.21-2.71,3.14-2.8,6.29-5.6L927,397.17c8.47-7.36,16.53-15.18,24.72-22.85L964,362.77c2.06-1.9,4-3.89,6-5.87l6-5.94,11.94-11.87,6-5.93,3-3,2.91-3L1023,302.77l23.35-24.6c2-2.05,3.88-4.13,5.87-6.15l6-6,12-12c32.21-31.87,65.9-62.35,101.63-90.33l13.45-10.43,3.36-2.6c1.13-.86,2.28-1.69,3.43-2.53l6.86-5c4.59-3.33,9.13-6.74,13.76-10l14-9.67,7-4.82,7.14-4.64,14.29-9.26,14.56-8.85,7.29-4.41,7.41-4.2a697.29,697.29,0,0,1,123.93-56.44l8.08-2.7,4-1.35c1.35-.43,2.72-.82,4.08-1.23l16.36-4.85,16.5-4.32c2.74-.77,5.53-1.31,8.3-2l8.32-1.88a546,546,0,0,1,67.4-10.34,520.1,520.1,0,0,1,135.82,5.6,523.12,523.12,0,0,1,129.29,40.9A525.35,525.35,0,0,1,1866,81.2q14.28,9.14,27.89,19.23A314.57,314.57,0,0,1,1920,121.92Z" transform="translate(0 0)"/></g><circle class="cls-3" cx="1018.34" cy="308.8" r="27.66"/></g></g></svg>